<svg width="28" height="29" viewBox="0 0 28 29" fill="none" xmlns="http://www.w3.org/2000/svg"><path d="m11.82.41 7.53 7.54.08-.08a.86.86 0 0 1 1.18-.01l.88.87c.3.3.31.77.08 1.1l-.15.2 6.16 6.15a1.4 1.4 0 0 1 0 1.98l-9.43 9.43a1.4 1.4 0 0 1-1.98 0l-4.45-4.45a.84.84 0 0 1-1.25.08l-2.6-2.6a.86.86 0 0 1-.01-1.19l.08-.08L.4 11.82a1.4 1.4 0 0 1 0-1.98L9.84.41a1.4 1.4 0 0 1 1.98 0ZM18.4 8.9l-1.75-1.75a.6.6 0 0 0-.85 0l-3.58 3.58a.6.6 0 0 0 0 .86l1.75 1.75.6-.61-1.56-1.57 3.21-3.22 1.57 1.58.61-.62Zm-5.07 5.07-1.76-1.75a.6.6 0 0 0-.85 0L7.14 15.8v.01a.6.6 0 0 0 0 .85l1.75 1.75.61-.61-1.57-1.57 3.22-3.2 1.57 1.56.6-.62ZM6.83 6.2l3.57 3.58c.24.24.62.24.85 0l3.58-3.59a.58.58 0 0 0 .18-.42h.01a.61.61 0 0 0-.18-.43l-3.58-3.58a.6.6 0 0 0-.86 0l-3.58 3.6a.6.6 0 0 0 0 .84Zm-5.08 5.07 3.58 3.58a.6.6 0 0 0 .85 0l3.58-3.58a.58.58 0 0 0 .18-.43h.01a.6.6 0 0 0-.18-.43L6.2 6.82a.6.6 0 0 0-.85 0l-3.59 3.6a.6.6 0 0 0 0 .84Zm6.94 8.76 2.36 2.36 9.63-13.04-.65-.65L8.69 20.02Z" fill="#000"/><path d="m11.82.41 7.53 7.54.08-.08a.86.86 0 0 1 1.18-.01l.88.87c.3.3.31.77.08 1.1l-.15.2 6.16 6.15a1.4 1.4 0 0 1 0 1.98l-9.43 9.43a1.4 1.4 0 0 1-1.98 0l-4.45-4.45a.84.84 0 0 1-1.25.08l-2.6-2.6a.86.86 0 0 1-.01-1.19l.08-.08L.4 11.82a1.4 1.4 0 0 1 0-1.98L9.84.41a1.4 1.4 0 0 1 1.98 0ZM18.4 8.9l-1.75-1.75a.6.6 0 0 0-.85 0l-3.58 3.58a.6.6 0 0 0 0 .86l1.75 1.75.6-.61-1.56-1.57 3.21-3.22 1.57 1.58.61-.62Zm-5.07 5.07-1.76-1.75a.6.6 0 0 0-.85 0L7.14 15.8v.01a.6.6 0 0 0 0 .85l1.75 1.75.61-.61-1.57-1.57 3.22-3.2 1.57 1.56.6-.62ZM6.83 6.2l3.57 3.58c.24.24.62.24.85 0l3.58-3.59a.58.58 0 0 0 .18-.42h.01a.61.61 0 0 0-.18-.43l-3.58-3.58a.6.6 0 0 0-.86 0l-3.58 3.6a.6.6 0 0 0 0 .84Zm-5.08 5.07 3.58 3.58a.6.6 0 0 0 .85 0l3.58-3.58a.58.58 0 0 0 .18-.43h.01a.6.6 0 0 0-.18-.43L6.2 6.82a.6.6 0 0 0-.85 0l-3.59 3.6a.6.6 0 0 0 0 .84Zm6.94 8.76 2.36 2.36 9.63-13.04-.65-.65L8.69 20.02Z" fill="#FD9222"/></svg>