<svg xmlns="http://www.w3.org/2000/svg" aria-hidden="true" style="position:absolute;width:0;height:0;overflow:hidden"><defs><symbol id="icon-mastercard" viewBox="0 0 32 32"><path fill="#ed0006" d="M16 22.83a9.08 9.08 0 0 1-5.93 2.2C5 25.03.92 20.91.92 15.83s4.1-9.2 9.15-9.2c2.26 0 4.33.82 5.93 2.2a9.08 9.08 0 0 1 5.93-2.2c5.06 0 9.15 4.12 9.15 9.2s-4.1 9.2-9.14 9.2a9.08 9.08 0 0 1-5.94-2.2z" style="fill:var(--color3, #ed0006)"/><path fill="#f9a000" d="M16 22.83a9.2 9.2 0 0 0 0-14 9.08 9.08 0 0 1 5.93-2.2c5.06 0 9.15 4.12 9.15 9.2s-4.1 9.2-9.14 9.2a9.08 9.08 0 0 1-5.94-2.2z" style="fill:var(--color4, #f9a000)"/><path fill="#ff5e00" d="M16 22.83a9.2 9.2 0 0 0 0-14 9.2 9.2 0 0 0 0 14z" style="fill:var(--color5, #ff5e00)"/></symbol><symbol id="icon-flag" viewBox="0 0 40 32"><path fill="gold" d="M40.2.5H.3v29.69h39.9V.49z" style="fill:var(--color1, #ffd700)"/><path fill="#0057b7" d="M.3.5h39.9v14.84H.3V.5z" style="fill:var(--color2, #0057b7)"/></symbol><symbol id="icon-vector" viewBox="0 0 32 32"><path d="M16.95 17.87a1.33 1.33 0 0 1-1.9 0l-6.1-6.12a1.33 1.33 0 1 0-1.9 1.88l6.12 6.12a4 4 0 0 0 5.66 0l6.12-6.12a1.34 1.34 0 0 0-.44-2.18 1.33 1.33 0 0 0-1.46.3l-6.1 6.12z"/></symbol><symbol id="icon-close" viewBox="0 0 32 32"><path d="M24 8 8 24M8 8l16 16"/></symbol><symbol id="icon-burger" viewBox="0 0 32 32"><path d="M2 16h28M2 6.67h28M2 25.33h28"/></symbol><symbol id="icon-twitter" viewBox="0 0 32 32"><path d="M32 6.08c-1.19.52-2.46.87-3.78 1.03a6.52 6.52 0 0 0 2.89-3.62 13.11 13.11 0 0 1-4.16 1.59A6.57 6.57 0 0 0 22.15 3a6.56 6.56 0 0 0-6.4 8.06A18.57 18.57 0 0 1 2.23 4.2a6.6 6.6 0 0 0-.9 3.31 6.57 6.57 0 0 0 2.91 5.45 6.48 6.48 0 0 1-2.96-.8v.07a6.59 6.59 0 0 0 5.26 6.44 6.55 6.55 0 0 1-1.72.22 5.8 5.8 0 0 1-1.25-.11 6.62 6.62 0 0 0 6.13 4.57 13.18 13.18 0 0 1-8.13 2.8c-.54 0-1.05-.03-1.57-.1A18.47 18.47 0 0 0 10.06 29c12.08 0 18.68-10 18.68-18.67 0-.29-.01-.57-.03-.85A13.09 13.09 0 0 0 32 6.08z"/></symbol><symbol id="icon-instagram" viewBox="0 0 32 32"><path d="M22.67 2.67H9.33a6.67 6.67 0 0 0-6.66 6.66v13.34a6.67 6.67 0 0 0 6.66 6.66h13.34a6.67 6.67 0 0 0 6.66-6.66V9.33a6.67 6.67 0 0 0-6.66-6.66z"/><path d="M21.33 15.16a5.33 5.33 0 1 1-10.54 1.57 5.33 5.33 0 0 1 10.55-1.57zm2-6.49h.02"/></symbol><symbol id="icon-spoon" viewBox="0 0 32 32"><path fill="#fd9222" d="M15.45 14.1a5.15 5.15 0 0 1-1.18-3.28c0-4.32 5.19-8.64 10.37-8.64a5.18 5.18 0 0 1 5.18 5.18c0 5.19-4.32 10.37-8.65 10.37-1.16 0-2.33-.4-3.28-1.18L5.13 29.31a1.73 1.73 0 0 1-2.44-2.44L15.45 14.1z" style="fill:var(--color2, #fd9222)"/></symbol><symbol id="icon-coin" viewBox="0 0 32 32"><path fill="#fd9222" d="M16 2.67c-7.33 0-13.33 6-13.33 13.33s6 13.33 13.33 13.33 13.33-6 13.33-13.33S23.33 2.67 16 2.67zm0 24c-5.87 0-10.67-4.8-10.67-10.67S10.13 5.33 16 5.33 26.67 10.13 26.67 16 21.87 26.67 16 26.67z" style="fill:var(--color2, #fd9222)"/><path fill="#fd9222" d="M17.73 14.67h-3.46a1.2 1.2 0 1 1 0-2.4h4.93c.8 0 1.33-.54 1.33-1.34S20 9.6 19.2 9.6h-1.87V8.4c0-.8-.53-1.33-1.33-1.33s-1.33.53-1.33 1.33v1.2h-.4a3.87 3.87 0 0 0 0 7.74h3.33c.67 0 1.2.53 1.2 1.2s-.53 1.2-1.2 1.2h-4.93c-.8 0-1.34.53-1.34 1.33s.54 1.33 1.34 1.33h2v1.2c0 .8.53 1.33 1.33 1.33s1.33-.53 1.33-1.33v-1.2h.4a3.87 3.87 0 0 0 0-7.73z" style="fill:var(--color2, #fd9222)"/></symbol><symbol id="icon-choco-bar" viewBox="0 0 32 32"><path d="m13.6.46 8.3 8.31.1-.09a.95.95 0 0 1 1.3-.01l.96.96c.34.34.35.85.1 1.2l-.01.02-.16.2 6.8 6.8c.6.61.6 1.58 0 2.2l-10.4 10.4c-.62.6-1.59.6-2.2 0l-4.9-4.91a.92.92 0 0 1-.68.35.93.93 0 0 1-.7-.27l-2.88-2.87a.95.95 0 0 1-.01-1.3v-.01l.1-.09L1 13.05a1.54 1.54 0 0 1 0-2.19L11.4.46c.6-.61 1.58-.61 2.19 0zm7.26 9.35-1.94-1.93a.65.65 0 0 0-.94 0l-3.95 3.95a.66.66 0 0 0 0 .94l1.93 1.93.68-.67-1.73-1.73 3.54-3.55 1.73 1.74.68-.68zm-5.6 5.6-1.94-1.94a.65.65 0 0 0-.94 0l-3.96 3.97a.65.65 0 0 0 0 .93l1.94 1.94.68-.68L9.3 17.9l3.56-3.54 1.72 1.72.68-.67zM8.08 6.83l3.95 3.95c.26.27.68.27.94 0l3.95-3.96a.64.64 0 0 0 .2-.46.67.67 0 0 0-.2-.47l-3.94-3.95a.67.67 0 0 0-.95 0L8.08 5.9a.65.65 0 0 0 0 .93zm-5.6 5.6 3.95 3.95c.27.26.69.26.94 0l3.95-3.95a.64.64 0 0 0 .2-.48h.01a.66.66 0 0 0-.2-.47L7.38 7.53a.65.65 0 0 0-.93 0l-3.97 3.96a.65.65 0 0 0 0 .94zm7.65 9.66 2.61 2.6 10.63-14.38-.72-.73-12.51 12.5z" style="fill:var(--color1, #000)"/><path fill="#fd9222" d="m13.6.46 8.3 8.31.1-.09a.95.95 0 0 1 1.3-.01l.96.96c.34.34.35.85.1 1.2l-.01.02-.16.2 6.8 6.8c.6.61.6 1.58 0 2.2l-10.4 10.4c-.62.6-1.59.6-2.2 0l-4.9-4.91a.92.92 0 0 1-.68.35.93.93 0 0 1-.7-.27l-2.88-2.87a.95.95 0 0 1-.01-1.3v-.01l.1-.09L1 13.05a1.54 1.54 0 0 1 0-2.19L11.4.46c.6-.61 1.58-.61 2.19 0zm7.26 9.35-1.94-1.93a.65.65 0 0 0-.94 0l-3.95 3.95a.66.66 0 0 0 0 .94l1.93 1.93.68-.67-1.73-1.73 3.54-3.55 1.73 1.74.68-.68zm-5.6 5.6-1.94-1.94a.65.65 0 0 0-.94 0l-3.96 3.97a.65.65 0 0 0 0 .93l1.94 1.94.68-.68L9.3 17.9l3.56-3.54 1.72 1.72.68-.67zM8.08 6.83l3.95 3.95c.26.27.68.27.94 0l3.95-3.96a.64.64 0 0 0 .2-.46.67.67 0 0 0-.2-.47l-3.94-3.95a.67.67 0 0 0-.95 0L8.08 5.9a.65.65 0 0 0 0 .93zm-5.6 5.6 3.95 3.95c.27.26.69.26.94 0l3.95-3.95a.64.64 0 0 0 .2-.48h.01a.66.66 0 0 0-.2-.47L7.38 7.53a.65.65 0 0 0-.93 0l-3.97 3.96a.65.65 0 0 0 0 .94zm7.65 9.66 2.61 2.6 10.63-14.38-.72-.73-12.51 12.5z" style="fill:var(--color2, #fd9222)"/></symbol><symbol id="icon-choco-logo" viewBox="0 0 32 32"><path fill="#fcf1e0" d="M3.94 20.08 14.72 2.65l.64-.67 8.24 5.49.05 3.31 2.01 3.28-8.88 14.08-12.84-8.06z" style="fill:var(--color8, #fcf1e0)"/><path fill="none" stroke="#fd9222" stroke-linecap="round" stroke-linejoin="round" stroke-width="2.67" d="M21.64 23.88 7.45 15.02m3.91-6.42 14.19 8.86m-14.92 8.4L22.37 6.61m4.8 8.18c-3.03-1.9-4.23-3.38-2.27-6.6l-9.63-6L3.54 21.42l14.18 8.87 9.46-15.51z" style="stroke:var(--color2, #fd9222)"/></symbol><symbol id="icon-instagram-22" viewBox="0 0 32 32"><path stroke-linecap="round" stroke-linejoin="round" stroke-width="2.18" d="M22.67 2.67H9.33a6.67 6.67 0 0 0-6.66 6.66v13.34a6.67 6.67 0 0 0 6.66 6.66h13.34a6.67 6.67 0 0 0 6.66-6.66V9.33a6.67 6.67 0 0 0-6.66-6.66z"/><path stroke-linecap="round" stroke-linejoin="round" stroke-width="2.18" d="M21.33 15.16a5.33 5.33 0 0 1-10.54 1.6v-.04a5.33 5.33 0 0 1 10.54-1.59v.03z"/><path stroke-linecap="round" stroke-linejoin="round" stroke-width="2.18" d="M21.33 15.16a5.33 5.33 0 0 1-10.54 1.6v-.04a5.33 5.33 0 0 1 10.54-1.59v.03zm2-6.5h.02m-.02 0h.02"/></symbol><symbol id="icon-instagram-24" viewBox="0 0 32 32"><path stroke-linecap="round" stroke-linejoin="round" stroke-width="2.67" d="M22.67 2.67H9.33a6.67 6.67 0 0 0-6.66 6.66v13.34a6.67 6.67 0 0 0 6.66 6.66h13.34a6.67 6.67 0 0 0 6.66-6.66V9.33a6.67 6.67 0 0 0-6.66-6.66z"/><path stroke-linecap="round" stroke-linejoin="round" stroke-width="2.67" d="M21.33 15.16a5.33 5.33 0 0 1-10.54 1.6v-.04a5.33 5.33 0 0 1 10.54-1.59v.03z"/><path stroke-linecap="round" stroke-linejoin="round" stroke-width="2.67" d="M21.33 15.16a5.33 5.33 0 0 1-10.54 1.6v-.04a5.33 5.33 0 0 1 10.54-1.59v.03zm2-6.5h.02m-.02 0h.02"/></symbol><symbol id="icon-twitter-22" viewBox="0 0 32 32"><path stroke-linecap="round" stroke-linejoin="round" stroke-width="2.4" d="M30.67 4a14.37 14.37 0 0 1-4.09 2.01l-.1.03a5.97 5.97 0 0 0-10.48 4v1.33a14.16 14.16 0 0 1-6.84-1.54l.08.03C7.14 8.81 5.34 6.72 4 4.8c0 0-5.33 12.53 6.67 17.87a15.39 15.39 0 0 1-9.37 2.66h.03C13.33 32 28 25.33 28 10c0-.37-.04-.74-.1-1.1a10.28 10.28 0 0 0 2.75-4.83l.02-.07z"/></symbol><symbol id="icon-twitter-24" viewBox="0 0 32 32"><path stroke-linecap="round" stroke-linejoin="round" stroke-width="2.67" d="M30.67 4a14.37 14.37 0 0 1-4.09 2.01l-.1.03a5.97 5.97 0 0 0-10.48 4v1.33a14.15 14.15 0 0 1-6.84-1.55l.08.04C7.15 8.81 4.68 6.3 3.34 4.38c0 0-4.67 12.95 7.33 18.29a15.39 15.39 0 0 1-9.37 2.66h.03C13.33 32 28 25.33 28 10c0-.37-.04-.74-.1-1.1a10.28 10.28 0 0 0 2.75-4.83l.02-.07z"/></symbol><symbol id="icon-menu-32" viewBox="0 0 32 32"><path stroke-linecap="round" stroke-linejoin="round" stroke-width="2.5" d="M4 16h24M4 8h24M4 24h24"/></symbol><symbol id="icon-menu-28" viewBox="0 0 32 32"><path stroke-linecap="round" stroke-linejoin="round" stroke-width="2.29" d="M4 16h24M4 8h24M4 24h24"/></symbol><symbol id="icon-menu-close" viewBox="0 0 32 32"><path stroke-linecap="round" stroke-linejoin="round" stroke-width="2.29" d="M22.67 9.33 9.33 22.67m0-13.34 13.34 13.34"/></symbol><symbol id="icon-video-play" viewBox="0 0 32 32"><path fill="#f5f4f4" style="fill:var(--color1, #f5f4f4)" d="M11.89 23.77V10.06l12.8 6.85-12.8 6.86z"/><path fill="none" stroke="#fff" style="stroke:var(--color2, #fff)" stroke-width=".91" d="M31.54 16A15.54 15.54 0 1 1 .46 16a15.54 15.54 0 0 1 31.08 0z"/></symbol></defs></svg>